<?xml version="1.0" encoding="UTF-8"?>
<svg xmlns="http://www.w3.org/2000/svg" xmlns:xlink="http://www.w3.org/1999/xlink" width="24px" height="24px" viewBox="0 0 24 24" version="1.1">
<g id="surface1">
<path style=" stroke:none;fill-rule:nonzero;fill:rgb(0%,0%,0%);fill-opacity:1;" d="M 12 1.441406 C 6.167969 1.441406 1.441406 6.167969 1.441406 12 C 1.441406 17.292969 5.339844 21.664062 10.421875 22.429688 L 10.421875 14.800781 L 7.808594 14.800781 L 7.808594 12.023438 L 10.421875 12.023438 L 10.421875 10.175781 C 10.421875 7.117188 11.910156 5.773438 14.453125 5.773438 C 15.671875 5.773438 16.3125 5.867188 16.617188 5.90625 L 16.617188 8.328125 L 14.886719 8.328125 C 13.804688 8.328125 13.429688 9.351562 13.429688 10.503906 L 13.429688 12.023438 L 16.589844 12.023438 L 16.164062 14.800781 L 13.429688 14.800781 L 13.429688 22.453125 C 18.582031 21.753906 22.558594 17.347656 22.558594 12 C 22.558594 6.167969 17.832031 1.441406 12 1.441406 Z M 12 1.441406 "/>
</g>
</svg>
